<?xml version="1.0" encoding="utf-8" ?>
<svg baseProfile="tiny" height="1024px" version="1.2" viewBox="0 0 1024 1024" width="1024px" xmlns="http://www.w3.org/2000/svg" xmlns:ev="http://www.w3.org/2001/xml-events" xmlns:xlink="http://www.w3.org/1999/xlink"><defs /><path d="M 427,360 L 426,361 L 424,361 L 423,362 L 422,362 L 421,363 L 420,363 L 416,367 L 416,368 L 411,373 L 411,374 L 407,378 L 407,379 L 401,385 L 401,386 L 396,391 L 396,392 L 391,397 L 391,398 L 385,404 L 385,405 L 380,410 L 380,411 L 374,417 L 374,418 L 369,423 L 369,424 L 364,429 L 364,430 L 359,435 L 359,436 L 354,441 L 354,442 L 350,446 L 350,447 L 348,449 L 348,450 L 347,451 L 347,456 L 350,459 L 351,459 L 352,460 L 398,460 L 399,459 L 401,459 L 402,458 L 403,458 L 408,453 L 408,452 L 414,446 L 414,445 L 419,440 L 419,439 L 424,434 L 424,433 L 429,428 L 429,427 L 434,422 L 434,421 L 440,415 L 440,414 L 445,409 L 445,408 L 450,403 L 450,402 L 455,397 L 455,396 L 460,391 L 460,390 L 466,384 L 466,383 L 471,378 L 471,377 L 474,374 L 474,373 L 475,372 L 475,366 L 474,365 L 474,364 L 472,362 L 471,362 L 470,361 L 469,361 L 468,360 Z" fill="#837BFF" stroke="none" /><path d="M 398,218 L 397,219 L 395,219 L 394,220 L 393,220 L 392,221 L 392,222 L 391,223 L 391,226 L 392,227 L 392,228 L 393,229 L 393,230 L 396,233 L 396,234 L 399,237 L 399,238 L 403,242 L 403,243 L 408,248 L 408,249 L 415,256 L 415,257 L 422,264 L 422,265 L 430,273 L 430,274 L 437,281 L 437,282 L 445,290 L 445,291 L 453,299 L 453,300 L 460,307 L 460,308 L 468,316 L 468,317 L 475,324 L 475,325 L 483,333 L 483,334 L 491,342 L 491,343 L 499,351 L 499,352 L 506,359 L 506,360 L 513,367 L 513,368 L 517,372 L 517,373 L 520,376 L 520,377 L 521,378 L 521,379 L 522,380 L 522,383 L 521,384 L 521,386 L 519,388 L 519,389 L 514,394 L 514,395 L 508,401 L 508,402 L 502,408 L 502,409 L 497,414 L 497,415 L 491,421 L 491,422 L 485,428 L 485,429 L 480,434 L 480,435 L 474,441 L 474,442 L 468,448 L 468,449 L 463,454 L 463,455 L 457,461 L 457,462 L 451,468 L 451,469 L 445,475 L 445,476 L 440,481 L 440,482 L 434,488 L 434,489 L 428,495 L 428,496 L 423,501 L 423,502 L 417,508 L 417,509 L 411,515 L 411,516 L 406,521 L 406,522 L 401,527 L 401,528 L 395,534 L 395,535 L 394,536 L 394,541 L 395,542 L 395,543 L 396,544 L 397,544 L 398,545 L 401,545 L 402,546 L 433,546 L 434,545 L 442,545 L 443,546 L 444,546 L 445,545 L 447,545 L 448,546 L 451,546 L 452,545 L 455,545 L 456,546 L 457,545 L 482,545 L 483,544 L 484,544 L 485,543 L 486,543 L 495,534 L 495,533 L 501,527 L 501,526 L 508,519 L 508,518 L 514,512 L 514,511 L 520,505 L 520,504 L 526,498 L 526,497 L 531,492 L 531,491 L 538,484 L 538,483 L 543,478 L 543,477 L 550,470 L 550,469 L 556,463 L 556,462 L 563,455 L 563,454 L 569,448 L 569,447 L 574,442 L 574,441 L 581,434 L 581,433 L 588,426 L 588,425 L 594,419 L 594,418 L 600,412 L 600,411 L 606,405 L 606,404 L 613,397 L 613,396 L 618,391 L 618,390 L 620,388 L 620,387 L 621,386 L 621,378 L 620,377 L 620,376 L 618,374 L 618,373 L 612,367 L 612,366 L 605,359 L 605,358 L 598,351 L 598,350 L 591,343 L 591,342 L 583,334 L 583,333 L 575,325 L 575,324 L 568,317 L 568,316 L 560,308 L 560,307 L 554,301 L 554,300 L 546,292 L 546,291 L 538,283 L 538,282 L 532,276 L 532,275 L 524,267 L 524,266 L 516,258 L 516,257 L 508,249 L 508,248 L 501,241 L 501,240 L 494,233 L 494,232 L 486,224 L 486,223 L 485,222 L 484,222 L 482,220 L 481,220 L 480,219 L 479,219 L 478,218 Z" fill="#837BFF" stroke="none" /></svg>