<svg width="24" height="25" viewBox="0 0 24 25" fill="none" xmlns="http://www.w3.org/2000/svg">
<path d="M19.7606 4.17969L7.54968 2.02344C7.15796 1.9545 6.75489 2.04397 6.42912 2.27217C6.10335 2.50037 5.88155 2.84861 5.8125 3.24031L3.02343 19.0841C2.98932 19.2782 2.99379 19.4771 3.03658 19.6694C3.07938 19.8618 3.15966 20.0439 3.27285 20.2052C3.38603 20.3665 3.52989 20.504 3.69622 20.6097C3.86254 20.7154 4.04806 20.7873 4.24218 20.8213L16.4531 22.9775C16.6473 23.0117 16.8463 23.0074 17.0388 22.9647C17.2313 22.9219 17.4134 22.8417 17.5748 22.7285C17.7363 22.6153 17.8738 22.4714 17.9796 22.305C18.0853 22.1386 18.1573 21.953 18.1912 21.7588L20.9803 5.915C21.0486 5.52315 20.9585 5.1202 20.7298 4.79478C20.5011 4.46936 20.1525 4.24811 19.7606 4.17969ZM16.7119 21.5L4.5 19.3438L7.28906 3.5L19.5 5.65625L16.7119 21.5ZM8.37562 5.97688C8.41036 5.7811 8.52142 5.60713 8.68439 5.49321C8.84735 5.3793 9.04889 5.33475 9.24468 5.36938L17.0259 6.74281C17.2109 6.77521 17.3769 6.87579 17.4913 7.02467C17.6057 7.17356 17.66 7.35993 17.6437 7.54696C17.6273 7.73399 17.5414 7.90808 17.4029 8.03484C17.2644 8.16159 17.0834 8.23179 16.8956 8.23156C16.8516 8.2315 16.8077 8.22774 16.7644 8.22031L8.98312 6.84594C8.78734 6.8112 8.61338 6.70014 8.49946 6.53717C8.38554 6.37421 8.341 6.17267 8.37562 5.97688ZM7.85625 8.93188C7.87334 8.83485 7.90938 8.74215 7.96231 8.65906C8.01524 8.57597 8.08402 8.50412 8.16473 8.44762C8.24543 8.39111 8.33648 8.35107 8.43266 8.32976C8.52885 8.30845 8.62829 8.3063 8.72531 8.32344L16.5066 9.69781C16.6928 9.72896 16.8604 9.8292 16.976 9.97853C17.0915 10.1279 17.1465 10.3153 17.1299 10.5034C17.1134 10.6915 17.0265 10.8664 16.8866 10.9932C16.7467 11.12 16.5641 11.1894 16.3753 11.1875C16.331 11.1876 16.2867 11.1835 16.2431 11.1753L8.46187 9.80188C8.26625 9.76671 8.09258 9.65533 7.97902 9.4922C7.86547 9.32907 7.82131 9.12754 7.85625 8.93188ZM7.33593 11.8859C7.37133 11.6907 7.48266 11.5174 7.64555 11.4041C7.80844 11.2907 8.00961 11.2466 8.205 11.2813L12.0937 11.9647C12.2786 11.9971 12.4446 12.0976 12.559 12.2464C12.6733 12.3952 12.7278 12.5814 12.7115 12.7684C12.6953 12.9553 12.6095 13.1294 12.4712 13.2562C12.3329 13.3831 12.152 13.4534 11.9644 13.4534C11.9204 13.4534 11.8765 13.4497 11.8331 13.4422L7.9425 12.755C7.74689 12.72 7.57315 12.6089 7.45943 12.4459C7.34571 12.283 7.30129 12.0816 7.33593 11.8859Z" fill="#F5F6F6"/>
</svg>
