<svg width="24" height="24" viewBox="0 0 24 24" fill="none" xmlns="http://www.w3.org/2000/svg">
<path d="M21.1446 5.68751L12.8764 0.886568C12.3549 0.589568 11.676 0.589568 11.1504 0.886568L2.79394 5.68751C2.25581 5.99707 1.875 6.57888 1.875 7.20119V16.7903C1.875 17.4126 2.26575 17.9946 2.80388 18.3059L5.01169 19.5599C6.06694 20.0796 6.43988 20.0796 6.92006 20.0796C8.4825 20.0796 9.375 19.1348 9.375 17.4869V8.02001C9.375 7.88632 9.30544 7.68738 9.17419 7.68738H8.11987C7.98637 7.68738 7.6875 7.88632 7.6875 8.01982V17.4867C7.6875 18.2172 7.02675 18.9441 5.79187 18.3267L3.51056 17.0118C3.43106 16.9686 3.375 16.8818 3.375 16.7903V7.20119C3.375 7.11082 3.47906 7.02007 3.55913 6.97376L11.8886 2.18107C11.9664 2.13701 12.0808 2.13701 12.1584 2.18107L20.3863 6.97263C20.4651 7.02007 20.4373 7.10801 20.4373 7.20119V16.7903C20.4373 16.8818 20.4716 16.9709 20.3938 17.0149L12.1277 21.8104C12.0568 21.853 11.9689 21.853 11.8912 21.8104L9.77119 20.545C9.70725 20.5079 9.63131 20.4946 9.57 20.5289C8.98013 20.8632 8.87137 20.9076 8.31806 21.0994C8.18194 21.1469 7.98112 21.2292 8.39494 21.4611L11.1696 23.1025C11.4345 23.2555 11.735 23.3361 12.0409 23.3361C12.3488 23.3361 12.6503 23.2563 12.9159 23.1025L21.1444 18.3059C21.6825 17.9924 21.9375 17.4126 21.9375 16.7903V7.20119C21.9375 6.57888 21.6825 5.99857 21.1446 5.68751ZM14.6081 15.2708C12.4095 15.2708 11.9252 14.6643 11.7638 13.5709C11.745 13.4532 11.6451 13.3124 11.5252 13.3124H10.4507C10.3177 13.3124 10.2109 13.4736 10.2109 13.606C10.2109 15.0059 10.9719 16.702 14.6083 16.702C17.2406 16.702 18.7498 15.6792 18.7498 13.8691C18.7498 12.0743 17.5372 11.6033 14.9844 11.2654C12.4041 10.9244 12.1419 10.7521 12.1419 10.1476C12.1419 9.64919 12.3639 8.98451 14.2746 8.98451C15.9817 8.98451 16.611 9.35088 16.8699 10.5016C16.8921 10.6098 16.9909 10.6874 17.1024 10.6874H18.1813C18.2477 10.6874 18.3111 10.6606 18.3576 10.6131C18.4026 10.5621 18.4264 10.4982 18.4204 10.4296C18.2533 8.44807 16.9369 7.52463 14.2744 7.52463C11.9061 7.52463 10.4932 8.52476 10.4932 10.2012C10.4932 12.0196 11.8989 12.5221 14.1724 12.7469C16.8921 13.0135 17.1036 13.411 17.1036 13.9459C17.1036 14.875 16.3577 15.2708 14.6081 15.2708Z" fill="#9955E8"/>
</svg>
