<svg width="24" height="24" viewBox="0 0 24 24" fill="none" xmlns="http://www.w3.org/2000/svg">
<g clip-path="url(#clip0_5_1980)">
<g clip-path="url(#clip1_5_1980)">
<path d="M9.24938 11.625H14.7167C16.2386 11.625 17.4375 10.3373 17.4375 8.80897V3.59685C17.4375 2.11335 16.194 0.998845 14.7084 0.751345C13.7683 0.594782 12.7969 0.523532 11.8609 0.528032C10.9253 0.532345 10.0586 0.612032 9.27244 0.751345C6.95588 1.16028 6.5625 2.01716 6.5625 3.59685V5.62503H12V6.37503H4.458C2.86725 6.37503 1.47413 7.33278 1.03857 9.15209C0.535878 11.2371 0.513565 12.5119 1.03857 14.689C1.42763 16.3093 2.35669 17.4375 3.94763 17.4375H5.8125V14.991C5.8125 13.1841 7.39275 11.625 9.24938 11.625ZM8.90475 4.29191C8.33738 4.29191 7.87763 3.8271 7.87763 3.25222C7.87763 2.67491 8.33719 2.20578 8.90475 2.20578C9.47007 2.20578 9.93207 2.67491 9.93207 3.25222C9.93188 3.8271 9.46988 4.29191 8.90475 4.29191ZM22.9277 9.15209C22.5343 7.5681 21.7834 6.37503 20.1904 6.37503H18.1875V8.80897C18.1875 10.6933 16.5386 12.1875 14.7167 12.1875H9.24938C7.75163 12.1875 6.5625 13.5612 6.5625 15.0612V20.2737C6.5625 21.7568 7.82719 22.6294 9.27413 23.055C11.007 23.5645 12.648 23.6565 14.7212 23.055C16.0991 22.6558 17.4375 21.853 17.4375 20.2737V18.1875H12V17.4375H20.1904C21.7811 17.4375 22.3742 16.3545 22.9277 14.6888C23.499 12.9741 23.4744 11.3515 22.9277 9.15209ZM15.0611 19.5782C15.6287 19.5782 16.0884 20.043 16.0884 20.6183C16.0884 21.195 15.6289 21.6643 15.0611 21.6643C14.4958 21.6643 14.034 21.1952 14.034 20.6183C14.034 20.043 14.4958 19.5782 15.0611 19.5782Z" fill="#9955E8"/>
</g>
</g>
<defs>
<clipPath id="clip0_5_1980">
<rect width="24" height="24" rx="12" fill="white"/>
</clipPath>
<clipPath id="clip1_5_1980">
<rect width="24" height="24" fill="white"/>
</clipPath>
</defs>
</svg>
