<svg width="63" height="64" viewBox="0 0 63 64" fill="none" xmlns="http://www.w3.org/2000/svg">
<g clip-path="url(#clip0_5_1997)">
<path d="M31.6812 1.15649C30.3133 4.66793 30.7697 7.92346 30.9023 11.6306C31.0746 16.4442 31.2209 21.2275 31.5705 26.0327" stroke="#7DFFAF" stroke-width="1.5" stroke-linecap="round"/>
<path d="M31.2877 34.6526C30.2861 39.4753 30.7366 44.1761 31.1538 49.0521C31.5499 53.6827 32.1058 58.2959 32.6526 62.9104" stroke="#7DFFAF" stroke-width="1.5" stroke-linecap="round"/>
<path d="M0.8641 35.784C3.93673 34.4168 6.83338 34.3613 10.1403 34.1369C15.1437 33.7973 19.9638 33.151 24.8808 32.1934" stroke="#7DFFAF" stroke-width="1.5" stroke-linecap="round"/>
<path d="M36.0098 30.7791C44.5058 30.2351 52.8682 28.8245 61.2931 27.6558" stroke="#7DFFAF" stroke-width="1.5" stroke-linecap="round"/>
<path d="M37.5946 26.6305L40.3177 21.6902" stroke="#7DFFAF" stroke-width="1.5" stroke-linecap="round"/>
<path d="M25.1266 38.592L21.82 41.8596" stroke="#7DFFAF" stroke-width="1.5" stroke-linecap="round"/>
<path d="M40.1037 37.3083L43.3909 39.5256" stroke="#7DFFAF" stroke-width="1.5" stroke-linecap="round"/>
<path d="M24.0373 23.7325C20.4755 22.6546 17.3061 21.0713 13.9229 19.5508" stroke="#7DFFAF" stroke-width="1.5" stroke-linecap="round"/>
</g>
<defs>
<clipPath id="clip0_5_1997">
<rect width="62.4762" height="64" fill="white"/>
</clipPath>
</defs>
</svg>
