<svg width="24" height="25" viewBox="0 0 24 25" fill="none" xmlns="http://www.w3.org/2000/svg">
<g clip-path="url(#clip0_5_1965)">
<path d="M0.263977 0.462158H23.736V23.9343H0.263977V0.462158Z" fill="#9955E8"/>
<path d="M21.815 18.3362C21.6431 17.2653 20.9449 16.3659 18.8765 15.5272C18.158 15.197 17.357 14.9606 17.1184 14.4161C17.0336 14.0992 17.0224 13.9207 17.076 13.7289C17.2299 13.1064 17.973 12.9123 18.5619 13.0908C18.9412 13.218 19.3003 13.5103 19.5169 13.9766C20.5297 13.3207 20.5277 13.325 21.2349 12.8743C20.976 12.4728 20.8378 12.2876 20.6683 12.1158C20.0591 11.4354 19.229 11.085 17.9015 11.1118L17.21 11.2012C16.5474 11.3687 15.9159 11.7165 15.5456 12.1828C14.4345 13.4435 14.7514 15.65 16.1034 16.5581C17.4354 17.5578 19.3922 17.7853 19.6421 18.7202C19.8853 19.8647 18.801 20.2352 17.7232 20.1035C16.929 19.9383 16.4872 19.5347 16.0097 18.8006C15.1307 19.3093 15.1307 19.3093 14.2269 19.829C14.4412 20.2976 14.6664 20.5097 15.0257 20.9156C16.7259 22.6402 20.9807 22.5555 21.7438 19.9451C21.7747 19.8555 21.9802 19.2577 21.815 18.3362ZM13.0241 11.25H10.8287L10.8197 16.926C10.8197 18.1331 10.8821 19.2397 10.6858 19.5789C10.3646 20.246 9.53229 20.1633 9.15298 20.034C8.76692 19.8442 8.57061 19.5744 8.34317 19.193C8.28073 19.0835 8.23386 18.9988 8.21811 18.9922L6.43311 20.0853C6.72992 20.6945 7.16717 21.2233 7.72723 21.5668C8.56386 22.0689 9.68829 22.2228 10.8643 21.9528C11.6297 21.7299 12.29 21.2681 12.6358 20.5652C13.1357 19.6436 13.0284 18.5282 13.0239 17.2944C13.0352 15.2816 13.0241 13.2692 13.0241 11.25Z" fill="#2C243B"/>
</g>
<defs>
<clipPath id="clip0_5_1965">
<rect width="24" height="24" fill="white" transform="translate(0 0.198242)"/>
</clipPath>
</defs>
</svg>
